:SAMPLES-PER-SECOND 30
:FRAME-RANGE 1-2091
:FULLY-SPECIFIED
:DEGREES
1699
root  -42.5281 38.4471 -116.782 -176.625 61.6059 -179.076
RightUpLeg  -14.6518 3.52401 9.47611
RightLeg  23.5236 -1.19459 -0.804893
RightFoot  -11.5843 -0.0949715 -7.9451
RightToes  5.38607e-012 1.2921e-014 -6.02303e-014
Spine  -1.38902 -6.47038 1.18933
Spine1  8.50984 -7.14426 3.49742
HEad  13.7664 -9.42543 -2.02824
LeftShoulder1  0.649183 0.887819 -20.6725
LeftArm  -1.18794 17.9832 -35.5584
LeftForeArm  29.2239 0.904062 -12.4729
LeftHand  -0.0541037 4.3633 3.83
RightShoulder  -0.395189 -4.7282 22.2454
RightArm  -29.2575 -37.7354 18.7268
RightForeArm  13.4461 -5.45284 -2.44422
RightHand  -0.0937446 -4.43023 -9.31221
LeftUpLeg  -19.5872 5.73104 6.79221
LeftLeg  64.0367 0.899099 2.67395
LeftFoot  5.79012 1.9604 -13.2029
LeftToes  -7.20997e-011 3.75522e-011 -2.80735e-011
1700
root  -41.2577 38.6436 -117.641 -176.908 65.2582 -179.822
RightUpLeg  -11.4173 4.02577 8.914
RightLeg  21.8453 1.58542 0.258529
RightFoot  -12.7105 -0.190219 -8.72914
RightToes  5.38607e-012 1.2921e-014 -6.02303e-014
Spine  -1.26632 -5.76883 1.47895
Spine1  7.57269 -6.1709 2.51414
HEad  14.1894 -8.77075 -1.37606
LeftShoulder1  0.599478 1.06119 -20.5221
LeftArm  -2.0617 22.3587 -35.1836
LeftForeArm  30.6723 1.07893 -12.0815
LeftHand  -0.044749 4.55699 3.20096
RightShoulder  -0.281567 -4.34934 21.6603
RightArm  -25.6972 -41.3604 16.2468
RightForeArm  11.8617 -5.66638 -1.20708
RightHand  -0.169958 -2.92062 -7.44923
LeftUpLeg  -22.5286 3.73408 7.46927
LeftLeg  59.4975 1.69719 3.67624
LeftFoot  3.7904 1.41843 -10.8288
LeftToes  -7.20997e-011 3.75522e-011 -2.80735e-011
1701
root  -39.9938 38.7207 -118.47 -177.379 69.3102 179.143
RightUpLeg  -8.621 4.24247 8.11889
RightLeg  20.6874 5.02681 1.29147
RightFoot  -14.1424 -0.325848 -9.40354
RightToes  5.38607e-012 1.2921e-014 -6.02303e-014
Spine  -1.42455 -5.15119 1.54953
Spine1  7.08126 -5.37632 1.47781
HEad  13.5363 -7.36519 -0.854121
LeftShoulder1  0.332219 2.07351 -20.802
LeftArm  -2.46426 25.7449 -34.8169
LeftForeArm  30.9549 1.16355 -11.8836
LeftHand  -0.0423 4.61245 2.99231
RightShoulder  -0.172668 -3.97964 20.7729
RightArm  -24.4174 -42.9821 15.2855
RightForeArm  10.1316 -3.5607 -0.453509
RightHand  -0.1476 -2.66903 -5.81847
LeftUpLeg  -24.7257 1.72471 8.33979
LeftLeg  53.1041 2.35137 3.83353
LeftFoot  1.4289 0.975903 -8.78717
LeftToes  -7.20997e-011 3.75522e-011 -2.80735e-011
1702
root  -38.7582 38.7674 -119.256 -178.345 73.1345 177.544
RightUpLeg  -6.14423 4.17692 6.9869
RightLeg  19.685 8.55258 2.22676
RightFoot  -15.3422 -0.459388 -10.1599
RightToes  5.38607e-012 1.2921e-014 -6.02303e-014
Spine  -1.7341 -4.50185 1.26934
Spine1  6.95268 -4.60544 0.52403
HEad  12.5135 -6.27795 -0.223471
LeftShoulder1  0.183542 2.6352 -21.2757
LeftArm  -2.86811 28.3234 -34.5984
LeftForeArm  30.018 1.34872 -11.7163
LeftHand  -0.0428949 4.64551 2.95441
RightShoulder  -0.110212 -3.75442 20.4151
RightArm  -24.7812 -42.2249 15.2189
RightForeArm  7.29489 -2.29877 -0.490185
RightHand  -0.143945 -2.23845 -4.94863
LeftUpLeg  -26.0841 -0.951482 9.24228
LeftLeg  44.3118 2.47265 2.98291
LeftFoot  -0.0144517 0.750297 -7.55914
LeftToes  -7.20997e-011 3.75522e-011 -2.80735e-011
1703
root  -37.5669 38.736 -119.996 179.323 76.0195 174.604
RightUpLeg  -4.16462 5.21114 5.50212
RightLeg  19.3655 10.4181 2.85735
RightFoot  -16.9701 -0.614523 -10.1411
RightToes  5.38607e-012 1.2921e-014 -6.02303e-014
Spine  -1.39044 -4.03869 -0.205876
Spine1  6.38859 -4.27891 0.657409
HEad  11.5603 -5.71966 0.14337
LeftShoulder1  0.0883076 2.99121 -22.1273
LeftArm  -2.91453 29.6542 -34.3984
LeftForeArm  29.1242 2.03402 -11.7032
LeftHand  -0.0422483 4.57893 2.86862
RightShoulder  -0.0507041 -3.53636 19.8717
RightArm  -26.6696 -40.0793 16.2573
RightForeArm  2.66232 -1.97153 -1.31016
RightHand  -0.146632 -1.70142 -4.38766
LeftUpLeg  -26.8182 -4.28995 10.0136
LeftLeg  33.3694 2.41303 2.0615
LeftFoot  -0.406179 0.727481 -7.56883
LeftToes  -7.20997e-011 3.75522e-011 -2.80735e-011
1704
root  -36.3525 38.6566 -120.711 176.542 77.2423 171.417
RightUpLeg  -1.95711 5.73691 4.24244
RightLeg  18.8544 10.5964 2.94315
RightFoot  -18.4348 -0.77226 -10.419
RightToes  5.38607e-012 1.2921e-014 -6.02303e-014
Spine  -1.7811 -4.27174 -1.41926
Spine1  7.14372 -4.52527 0.247555
HEad  10.7027 -5.77853 0.601796
LeftShoulder1  -0.0405278 3.44526 -22.4946
LeftArm  -3.01741 29.3921 -34.6666
LeftForeArm  29.1206 3.12043 -11.7255
LeftHand  -0.0390429 4.64079 2.50647
RightShoulder  0.0956332 -2.96997 19.2378
RightArm  -30.2143 -37.2364 18.4762
RightForeArm  -3.4468 -1.45878 -2.8003
RightHand  -0.0963036 -2.71342 -3.62739
LeftUpLeg  -27.2636 -7.87678 10.6404
LeftLeg  21.3481 2.62121 1.45659
LeftFoot  -0.588827 0.767294 -8.10774
LeftToes  -7.20997e-011 3.75522e-011 -2.80735e-011
1705
root  -35.1115 38.524 -121.401 174.034 77.4157 168.532
RightUpLeg  0.377651 6.63237 3.15408
RightLeg  18.0896 9.80551 2.71757
RightFoot  -19.8988 -0.945283 -10.802
RightToes  5.38607e-012 1.2921e-014 -6.02303e-014
Spine  -1.98784 -4.35305 -2.72648
Spine1  7.52997 -4.56222 -0.116784
HEad  10.6115 -7.44908 0.974331
LeftShoulder1  0.056047 3.10785 -22.5083
LeftArm  -3.01267 28.151 -34.9587
LeftForeArm  30.4076 4.40576 -11.7835
LeftHand  -0.0358425 4.75006 2.19779
RightShoulder  0.0902684 -2.98691 18.843
RightArm  -32.6166 -33.9456 19.3269
RightForeArm  -10.0309 -2.01108 -4.21585
RightHand  -0.0561873 -4.09765 -3.26156
LeftUpLeg  -27.5308 -4.35493 7.28401
LeftLeg  10.1926 -4.55999 1.52858
LeftFoot  -2.22577 0.776122 -9.55364
LeftToes  -7.20997e-011 3.75522e-011 -2.80735e-011
1706
root  -33.843 38.3432 -122.105 171.683 77.3205 166.166
RightUpLeg  3.03413 7.74905 2.44393
RightLeg  17.6463 8.14448 2.34472
RightFoot  -21.2964 -1.09355 -10.8666
RightToes  5.38607e-012 1.2921e-014 -6.02303e-014
Spine  -1.79833 -4.38933 -3.49813
Spine1  7.68983 -4.36902 -1.02575
HEad  11.2589 -9.66715 1.31547
LeftShoulder1  0.137563 2.82073 -22.3644
LeftArm  -2.73207 26.3373 -34.8832
LeftForeArm  31.6667 4.98264 -11.9111
LeftHand  -0.0326801 4.97789 2.18923
RightShoulder  -0.0552963 -3.56165 19.1305
RightArm  -34.6927 -29.7418 18.3407
RightForeArm  -13.4268 -2.75829 -5.64547
RightHand  -0.0454559 -4.39508 -2.76328
LeftUpLeg  -27.6762 -0.683885 3.50111
LeftLeg  1.89918 -9.21781 2.03795
LeftFoot  -5.12318 0.805511 -14.207
LeftToes  -7.20997e-011 3.75522e-011 -2.80735e-011
1707
root  -32.4765 38.0873 -122.854 170.172 77.5058 165.133
RightUpLeg  5.76965 8.95454 2.18438
RightLeg  18.5278 7.06062 2.38151
RightFoot  -22.6798 -1.14043 -9.91486
RightToes  5.38607e-012 1.2921e-014 -6.02303e-014
Spine  -1.8952 -4.21356 -3.5228
Spine1  8.42638 -3.90561 -2.13843
HEad  12.4225 -12.5713 1.42947
LeftShoulder1  0.219068 2.53261 -22.29
LeftArm  -2.36483 23.9808 -34.4558
LeftForeArm  31.9151 4.7963 -12.0263
LeftHand  -0.0344413 4.89844 2.3969
RightShoulder  0.0645215 -3.08154 17.742
RightArm  -34.6361 -26.2823 17.1617
RightForeArm  -16.6818 -4.35821 -6.07129
RightHand  -0.0100019 -6.00583 -3.59417
LeftUpLeg  -28.228 -1.542 1.76956
LeftLeg  0.584457 -5.32226 1.81538
LeftFoot  -7.29486 0.447723 -11.4104
LeftToes  -7.20997e-011 3.75522e-011 -2.80735e-011
1708
root  -31.0139 37.8594 -123.608 170.725 78.427 166.112
RightUpLeg  7.83639 9.93838 2.4691
RightLeg  20.6733 6.87645 2.65145
RightFoot  -23.0585 -1.07652 -8.9505
RightToes  5.38607e-012 1.2921e-014 -6.02303e-014
Spine  -2.58488 -3.881 -2.72235
Spine1  9.235 -3.15712 -3.65953
HEad  13.5973 -14.3624 1.67004
LeftShoulder1  0.244995 2.43537 -22.084
LeftArm  -2.13892 21.8044 -33.8663
LeftForeArm  31.6206 3.70415 -12.0464
LeftHand  -0.0373676 4.81082 2.78808
RightShoulder  0.164792 -2.62404 16.0154
RightArm  -33.2071 -22.4602 15.327
RightForeArm  -18.6818 -4.48895 -5.35376
RightHand  0.065323 -7.51584 -5.42348
LeftUpLeg  -29.585 -2.49005 0.777428
LeftLeg  5.51038 -0.351533 2.10024
LeftFoot  -4.96491 0.497428 -8.38641
LeftToes  -7.20997e-011 3.75522e-011 -2.80735e-011
1709
root  -29.4786 37.7063 -124.282 167.515 79.9482 163.487
RightUpLeg  9.04541 11.044 1.98831
RightLeg  24.8788 7.98724 3.81093
RightFoot  -22.1822 -0.843612 -7.29818
RightToes  5.38607e-012 1.2921e-014 -6.02303e-014
Spine  -2.89172 -3.41459 -3.78057
Spine1  9.48768 -2.55164 -4.11947
HEad  15.4259 -15.295 1.82187
LeftShoulder1  0.224791 2.50513 -22.0139
LeftArm  -1.43847 20.4091 -32.9814
LeftForeArm  30.7398 1.72185 -12.2107
LeftHand  -0.0405599 4.80664 3.55832
RightShoulder  0.246159 -2.18896 14.3168
RightArm  -32.3615 -18.2609 13.4962
RightForeArm  -20.7012 -4.53212 -4.80931
RightHand  0.178479 -8.94789 -7.0505
LeftUpLeg  -29.8738 -6.27301 1.49537
LeftLeg  10.5977 -0.508096 2.7004
LeftFoot  1.37104 1.02673 -9.27826
LeftToes  -7.20997e-011 3.75522e-011 -2.80735e-011
1710
root  -27.8603 37.6378 -124.93 158.561 80.7164 155.354
RightUpLeg  8.57943 10.567 -0.142338
RightLeg  32.5616 10.3729 6.83582
RightFoot  -19.0208 -0.508363 -5.6538
RightToes  5.38607e-012 1.2921e-014 -6.02303e-014
Spine  -2.59515 -3.30033 -5.8482
Spine1  8.89801 -2.42381 -4.21049
HEad  17.426 -15.8746 2.21937
LeftShoulder1  0.249102 2.42402 -22.1929
LeftArm  1.45265 18.7252 -31.1597
LeftForeArm  27.8355 -0.483639 -13.0337
LeftHand  -0.0419278 4.83713 4.12846
RightShoulder  0.392477 -1.36297 12.7527
RightArm  -32.9757 -15.8279 13.1565
RightForeArm  -22.5019 -4.46108 -4.9242
RightHand  0.373517 -11.1096 -8.44771
LeftUpLeg  -29.7138 -10.3791 2.19937
LeftLeg  16.6343 4.21291 2.1943
LeftFoot  1.75659 1.15231 -10.1118
LeftToes  -7.20997e-011 3.75522e-011 -2.80735e-011
1711
root  -26.3362 37.6654 -125.575 149.315 81.2465 146.604
RightUpLeg  5.1466 8.07972 -3.76405
RightLeg  43.2633 13.1531 12.6658
RightFoot  -11.6488 -0.0780582 0.30622
RightToes  5.38607e-012 1.2921e-014 -6.02303e-014
Spine  -3.03816 -3.12125 -6.55026
Spine1  9.08025 -1.8679 -5.92378
HEad  19.3554 -16.3841 1.96135
LeftShoulder1  0.412817 1.8557 -22.4034
LeftArm  0.265512 15.1957 -30.3203
LeftForeArm  29.4841 0.709005 -12.755
LeftHand  -0.05553 4.33122 3.89407
RightShoulder  0.426616 -0.93412 10.3928
RightArm  -34.8218 -14.5832 15.0178
RightForeArm  -21.3479 -4.34476 -5.75706
RightHand  0.255113 -11.0015 -6.25516
LeftUpLeg  -28.1322 -9.75892 0.233427
LeftLeg  19.764 4.15943 2.0049
LeftFoot  1.77312 1.09631 -9.61558
LeftToes  -7.20997e-011 3.75522e-011 -2.80735e-011
